HIERARCHY
ROOT Hips
{
	OFFSET 0.000000 0.000000 0.000000
	CHANNELS 6 Xposition Yposition Zposition Xrotation Yrotation Zrotation
	JOINT LeftUpLeg_virtual
	{
		OFFSET 0.000000 0.000000 0.000000
		CHANNELS 3 Xrotation Yrotation Zrotation
		JOINT LeftUpLeg
		{
			OFFSET 13.026900 -6.336304 -1.092800
			CHANNELS 3 Xrotation Yrotation Zrotation
			JOINT LeftLeg
			{
				OFFSET 0.524474 -46.096886 9.782700
				CHANNELS 3 Xrotation Yrotation Zrotation
				JOINT LeftFoot
				{
					OFFSET -0.524474 -53.427422 -12.948200
					CHANNELS 3 Xrotation Yrotation Zrotation
					JOINT LeftToeBase
					{
						OFFSET 0.192200 -14.009700 16.364100
						CHANNELS 3 Xrotation Yrotation Zrotation
						JOINT LeftToe_End
						{
							OFFSET -1.784700 -0.561700 9.474800
							CHANNELS 3 Xrotation Yrotation Zrotation
							End Site
							{
								OFFSET 0 0 0
							}
						}
					}
				}
			}
		}
	}
	JOINT RightUpLeg_virtual
	{
		OFFSET 0.000000 0.000000 0.000000
		CHANNELS 3 Xrotation Yrotation Zrotation
		JOINT RightUpLeg
		{
			OFFSET -12.883000 -6.336304 -1.092800
			CHANNELS 3 Xrotation Yrotation Zrotation
			JOINT RightLeg
			{
				OFFSET -0.524587 -46.096825 9.782800
				CHANNELS 3 Xrotation Yrotation Zrotation
				JOINT RightFoot
				{
					OFFSET 0.524587 -53.427383 -12.948300
					CHANNELS 3 Xrotation Yrotation Zrotation
					JOINT RightToeBase
					{
						OFFSET -0.192200 -14.009700 16.364100
						CHANNELS 3 Xrotation Yrotation Zrotation
						JOINT RightToe_End
						{
							OFFSET 1.784700 -0.561700 9.474800
							CHANNELS 3 Xrotation Yrotation Zrotation
							End Site
							{
								OFFSET 0 0 0
							}
						}
					}
				}
			}
		}
	}
	JOINT Spine_virtual
	{
		OFFSET 0.000000 0.000000 0.000000
		CHANNELS 3 Xrotation Yrotation Zrotation
		JOINT Spine
		{
			OFFSET 0.072000 7.257294 -0.789700
			CHANNELS 3 Xrotation Yrotation Zrotation
			JOINT Spine1
			{
				OFFSET 0.000000 12.508769 -0.658067
				CHANNELS 3 Xrotation Yrotation Zrotation
				JOINT Spine1_split
				{
					OFFSET 0.000000 12.508769 -0.658067
					CHANNELS 3 Xrotation Yrotation Zrotation
					JOINT Spine2
					{
						OFFSET 0.000000 12.508769 -0.658067
						CHANNELS 3 Xrotation Yrotation Zrotation
						JOINT Neck_virtual
						{
							OFFSET 0.000000 0.000000 0.000000
							CHANNELS 3 Xrotation Yrotation Zrotation
							JOINT Neck
							{
								OFFSET 0.000000 14.033295 7.520400
								CHANNELS 3 Xrotation Yrotation Zrotation
								JOINT Head
								{
									OFFSET 0.000000 8.198502 5.703100
									CHANNELS 3 Xrotation Yrotation Zrotation
									JOINT HeadTop_End
									{
										OFFSET 0.000000 17.760803 13.332701
										CHANNELS 3 Xrotation Yrotation Zrotation
										End Site
										{
											OFFSET 0 0 0
										}
									}
								}
							}
						}
						JOINT LeftShoulder_virtual
						{
							OFFSET 0.000000 0.000000 0.000000
							CHANNELS 3 Xrotation Yrotation Zrotation
							JOINT LeftShoulder
							{
								OFFSET 6.292450 5.785301 -0.669000
								CHANNELS 3 Xrotation Yrotation Zrotation
								JOINT LeftShoulder_split
								{
									OFFSET 6.292450 5.785301 -0.669000
									CHANNELS 3 Xrotation Yrotation Zrotation
									JOINT LeftArm
									{
										OFFSET 13.907140 -6.093903 1.965100
										CHANNELS 3 Xrotation Yrotation Zrotation
										JOINT LeftForeArm
										{
											OFFSET 34.140198 0.000000 0.000000
											CHANNELS 3 Xrotation Yrotation Zrotation
											JOINT LeftHand
											{
												OFFSET 40.960209 0.000000 0.000000
												CHANNELS 3 Xrotation Yrotation Zrotation
												End Site
												{
													OFFSET 0 0 0
												}
											}
										}
									}
								}
							}
						}
						JOINT RightShoulder_virtual
						{
							OFFSET 0.000000 0.000000 0.000000
							CHANNELS 3 Xrotation Yrotation Zrotation
							JOINT RightShoulder
							{
								OFFSET -6.292450 5.785301 -0.669000
								CHANNELS 3 Xrotation Yrotation Zrotation
								JOINT RightShoulder_split
								{
									OFFSET -6.292450 5.785301 -0.669000
									CHANNELS 3 Xrotation Yrotation Zrotation
									JOINT RightArm
									{
										OFFSET -13.907140 -6.093903 1.965100
										CHANNELS 3 Xrotation Yrotation Zrotation
										JOINT RightForeArm
										{
											OFFSET -34.140198 0.000000 0.000000
											CHANNELS 3 Xrotation Yrotation Zrotation
											JOINT RightHand
											{
												OFFSET -40.960209 0.000000 0.000000
												CHANNELS 3 Xrotation Yrotation Zrotation
												End Site
												{
													OFFSET 0 0 0
												}
											}
										}
									}
								}
							}
						}
					}
				}
			}
		}
	}
}
MOTION
Frames: 8
Frame Time: 0.03333333
6.247467 96.340820 -3.831299 0.000000 0.000000 0.000000 2.450960 -54.299393 4.381138 -40.456966 3.475729 21.260509 40.886277 -0.764089 1.569198 -2.372459 -10.678634 -17.355437 -0.360143 0.147415 -0.162165 0.000000 0.000000 0.000000 0.968804 -54.847580 4.093673 -33.394673 -22.919243 -38.099140 42.727112 7.812615 -3.001259 -12.381245 -4.085081 17.063172 1.067262 0.656714 0.173453 0.000000 0.000000 0.000000 4.285779 -51.342423 5.131997 9.446212 10.932122 -1.674376 3.537894 4.708536 -1.444672 0.328626 -0.102372 -0.080718 0.000000 0.000000 0.000000 3.826708 4.862494 -1.143963 -2.836662 2.997508 3.055351 -5.045427 40.572878 -6.872575 0.000000 0.000000 0.000000 4.341360 4.741763 -1.911269 0.370834 -8.713376 -15.831781 -6.049093 2.234691 1.264703 -11.625154 -39.278331 -19.692926 -6.238081 -66.325754 -3.088508 0.000000 0.000000 0.000000 5.610198 5.251653 -1.498205 -4.870756 20.565971 -19.409687 1.847171 -5.139275 -4.305251 -32.090858 28.105226 30.056418 -127.518006 88.180809 126.701935 0.000000 0.000000 0.000000 
6.826446 96.941582 -4.003670 0.000000 0.000000 0.000000 2.288178 -55.426719 4.415260 -40.181067 4.474140 21.635205 39.951645 -1.050835 1.503100 -1.931144 -9.879810 -17.614317 -0.428503 0.176297 -0.285324 0.000000 0.000000 0.000000 1.046519 -55.876227 4.076310 -33.806636 -22.761206 -37.498821 41.869650 7.554079 -2.848927 -11.092197 -3.716031 16.594815 1.447721 0.630941 0.207891 0.000000 0.000000 0.000000 3.762452 -52.328630 4.734309 10.987949 11.117060 -2.192604 3.615132 4.456122 -1.589022 0.254094 0.006393 -0.171865 0.000000 0.000000 0.000000 3.628090 4.679206 -1.172608 -2.755086 2.843569 3.444036 -8.018540 40.042308 -6.250956 0.000000 0.000000 0.000000 4.829019 4.303198 -1.881725 0.732014 -8.919522 -15.821008 -7.313463 2.496328 0.930111 -20.767854 -38.300064 -25.566479 -4.785905 -67.301720 -1.872813 0.000000 0.000000 0.000000 5.794863 5.056995 -1.279050 -1.698968 20.660866 -14.159692 1.742152 -4.541425 -4.009077 -22.504059 32.470712 25.192403 -170.230239 84.303946 169.487169 0.000000 0.000000 0.000000 
7.275220 97.716492 -4.091667 0.000000 0.000000 0.000000 2.284755 -57.395336 4.301894 -39.502983 5.948693 22.438341 38.648509 -1.570356 1.477861 -2.071150 -8.780566 -17.927636 -0.611364 0.165498 -0.336727 0.000000 0.000000 0.000000 1.146794 -57.796357 3.828167 -33.914338 -22.666302 -36.414710 40.089536 7.299565 -2.635974 -9.720868 -3.247924 16.264533 1.625179 0.569657 0.263385 0.000000 0.000000 0.000000 3.196890 -54.242794 4.092060 12.501625 10.868314 -2.912750 3.646615 4.045659 -1.813106 0.436798 -0.028000 -0.081506 0.000000 0.000000 0.000000 3.486125 4.252756 -1.363997 -2.958419 2.619037 3.785615 -10.290604 40.374450 -5.585868 0.000000 0.000000 0.000000 5.180395 3.727028 -1.922018 1.132282 -8.682117 -14.879623 -8.338428 2.638491 0.615603 -29.656784 -36.342460 -29.948170 -2.540581 -68.193449 0.019265 0.000000 0.000000 0.000000 5.792714 4.634684 -1.332811 0.712751 20.136660 -10.243250 1.911063 -3.011814 -3.200729 -14.373360 34.594157 18.544010 -174.635274 81.439091 173.737814 0.000000 0.000000 0.000000 
7.602624 98.609253 -4.077209 0.000000 0.000000 0.000000 2.226557 -60.263387 3.892341 -38.371859 7.699887 23.637987 37.289906 -2.269343 1.475657 -2.612183 -7.409764 -18.249198 -0.901645 0.117303 -0.336499 0.000000 0.000000 0.000000 1.212875 -60.552714 3.328905 -33.680841 -22.591325 -34.832015 37.450853 7.096651 -2.387697 -8.570418 -2.633673 15.960410 1.715804 0.475768 0.351373 0.000000 0.000000 0.000000 2.476764 -56.905523 3.125177 13.740461 10.320592 -3.815521 3.676754 3.622921 -2.072116 0.547500 0.123000 0.048172 0.000000 0.000000 0.000000 3.423829 3.723890 -1.627532 -3.451544 2.297059 4.138798 -11.556859 41.468561 -4.857056 0.000000 0.000000 0.000000 5.365842 3.169925 -1.997460 1.472459 -8.282157 -13.110641 -9.164478 2.549082 0.414344 -36.852634 -33.640731 -31.223537 0.021770 -69.818788 2.172297 0.000000 0.000000 0.000000 5.677546 4.127993 -1.593742 2.448866 19.395143 -7.926166 1.915018 -1.265689 -1.882457 -9.732169 37.506047 12.034402 -173.422287 82.064095 172.132365 0.000000 0.000000 0.000000 
7.896807 99.538734 -3.997604 0.000000 0.000000 0.000000 2.245011 -64.054894 3.329981 -36.871909 9.561117 25.123290 36.178559 -3.007217 1.484078 -3.380708 -5.669208 -18.401515 -1.077724 0.039924 -0.362719 0.000000 0.000000 0.000000 1.189120 -64.074442 2.601297 -33.122422 -22.431345 -32.810088 34.230067 6.948354 -2.112979 -7.837297 -1.812374 15.531562 1.879916 0.371516 0.465381 0.000000 0.000000 0.000000 1.598801 -60.334558 1.864793 14.510752 9.556721 -4.848796 3.751174 3.279577 -2.280176 0.918233 0.252102 0.099115 0.000000 0.000000 0.000000 3.476475 3.216827 -1.861699 -4.215066 2.095473 4.432705 -11.817266 43.366592 -4.065350 0.000000 0.000000 0.000000 5.415745 2.744252 -2.067295 1.706979 -7.875028 -10.783007 -9.559556 2.360921 0.671694 -41.175129 -30.527575 -28.886994 2.094172 -72.490389 3.929347 0.000000 0.000000 0.000000 5.516526 3.638893 -1.909433 3.488104 18.420996 -7.189542 1.257218 -0.261223 -0.024583 -9.169508 43.303379 6.869447 -165.755427 84.974302 163.920620 0.000000 0.000000 0.000000 
8.136247 100.466415 -3.929169 0.000000 0.000000 0.000000 2.238710 -68.516892 2.663011 -35.059996 11.527753 26.802405 35.303370 -3.656383 1.483673 -4.217144 -3.645437 -18.334272 -1.092902 -0.046477 -0.442229 0.000000 0.000000 0.000000 1.084237 -68.076195 1.777299 -32.338026 -22.061854 -30.546952 30.927950 6.899793 -1.849853 -7.405294 -0.751415 15.035367 2.183688 0.280155 0.579581 0.000000 0.000000 0.000000 0.445355 -64.284941 0.345517 14.651813 8.585371 -5.950562 3.845667 3.023291 -2.363153 1.268886 -0.211299 0.033132 0.000000 0.000000 0.000000 3.645235 2.745066 -1.928492 -5.116111 2.245708 4.603214 -11.025174 46.146240 -3.477594 0.000000 0.000000 0.000000 5.342416 2.479796 -2.055245 1.860242 -7.644271 -8.148659 -9.631444 2.149373 1.446294 -42.748317 -26.416071 -23.805689 3.177680 -75.222533 4.849159 0.000000 0.000000 0.000000 5.367854 3.187475 -2.129918 3.791913 16.993319 -7.665902 0.510404 -0.068894 1.691618 -13.271948 51.309409 5.071436 -144.129764 87.337001 141.846500 0.000000 0.000000 0.000000 
8.286695 101.358673 -3.810463 0.000000 0.000000 0.000000 2.190948 -73.278531 2.065603 -33.039438 13.696206 28.443295 34.445477 -4.152488 1.431957 -4.920145 -1.537737 -18.164398 -1.047873 -0.133810 -0.537753 0.000000 0.000000 0.000000 0.912744 -72.445487 1.009522 -31.432459 -21.462640 -28.288219 27.948632 7.046888 -1.652299 -6.992164 0.624162 14.725178 2.554026 0.226644 0.684946 0.000000 0.000000 0.000000 -0.882008 -68.585809 -1.305228 14.103144 7.461247 -7.014446 3.917268 2.800940 -2.318182 1.538227 -0.494234 0.239685 0.000000 0.000000 0.000000 3.928029 2.306740 -1.817540 -6.071564 2.857537 4.653891 -9.114975 49.937890 -3.460962 0.000000 0.000000 0.000000 5.144681 2.302198 -1.974065 1.951865 -7.647215 -5.451076 -9.353089 1.698245 2.500938 -42.271375 -20.843296 -17.510496 2.459782 -76.687622 4.209871 0.000000 0.000000 0.000000 5.191923 2.736294 -2.176666 3.572476 15.238888 -8.884438 -0.188735 -0.464939 3.070826 -22.945882 59.268113 9.259557 -122.319112 87.996701 120.018144 0.000000 0.000000 0.000000 
8.333367 102.200348 -3.652294 0.000000 0.000000 0.000000 2.695283 -77.975133 2.183261 -31.046676 16.072600 29.810005 33.358722 -4.517207 1.326636 -5.379709 0.423305 -17.919978 -1.059577 -0.230437 -0.604997 0.000000 0.000000 0.000000 0.900447 -76.859600 0.597651 -30.455042 -20.615992 -26.212652 25.460176 7.399859 -1.551732 -6.378394 2.241122 14.768452 2.666450 0.210471 0.774334 0.000000 0.000000 0.000000 -2.043352 -72.971842 -2.648176 12.996663 6.176454 -7.879941 3.965051 2.567007 -2.216944 2.038227 -0.968189 0.561405 0.000000 0.000000 0.000000 4.230260 1.886027 -1.637299 -7.004172 3.972511 4.694813 -6.031733 54.779852 -4.426559 0.000000 0.000000 0.000000 4.926475 2.137262 -1.897420 2.106420 -7.738191 -2.709504 -8.669043 0.954316 3.471128 -40.751443 -14.232216 -11.825235 0.320110 -75.484184 2.351828 0.000000 0.000000 0.000000 5.003317 2.282774 -2.099143 2.887803 13.193509 -10.397549 -0.654329 -1.151799 3.919954 -37.617359 64.400488 20.314970 -134.841321 87.939293 133.040064 0.000000 0.000000 0.000000 
